# xmcd
#
# Track frame offsets: 
#        150
#        12356
#        29466
#        41475
#        55494
#        68848
#        82997
#        95137
#        112769
#        123383
#        138314
#        153494
#        168009
#        184546
#        199634
#        212961
#        227750
#        245572
#        259354
#        276427
#
# Disc length: 3852 seconds
#
# Revision: 2
# Processed by: cddbd v1.5.2PL0 Copyright (c) Steve Scherf et al.
# Submitted via: ExactAudioCopyFreeDBPlugin 1.0
#
DISCID=1b0f0a14
DTITLE=群星 - DTS51酒廊情思
DYEAR=2008
DGENRE=DTS
TTITLE0=爱你爱在心坎里
TTITLE1=粉红色的回忆
TTITLE2=点燃一根烟
TTITLE3=滴滴眼泪都是爱
TTITLE4=多少柔情多少泪
TTITLE5=含泪的分手
TTITLE6=梨山痴情花
TTITLE7=流水年华
TTITLE8=梅兰梅兰我爱你
TTITLE9=美酒加咖啡
TTITLE10=几度花落时
TTITLE11=蒙蒙细雨忆当年
TTITLE12=奈何
TTITLE13=你怎么说
TTITLE14=何日君再来
TTITLE15=恨你不回头
TTITLE16=几时再回头
TTITLE17=今宵多珍重
TTITLE18=酒醉的探戈
TTITLE19=泪的小花
EXTD=
EXTT0=
EXTT1=
EXTT2=
EXTT3=
EXTT4=
EXTT5=
EXTT6=
EXTT7=
EXTT8=
EXTT9=
EXTT10=
EXTT11=
EXTT12=
EXTT13=
EXTT14=
EXTT15=
EXTT16=
EXTT17=
EXTT18=
EXTT19=
PLAYORDER=
